<?xml version="1.0" encoding="utf-8"?>
<!-- Svg Vector Icons : http://www.onlinewebfonts.com/icon -->
<!DOCTYPE svg PUBLIC "-//W3C//DTD SVG 1.1//EN" "http://www.w3.org/Graphics/SVG/1.1/DTD/svg11.dtd">
<svg version="1.1" xmlns="http://www.w3.org/2000/svg" xmlns:xlink="http://www.w3.org/1999/xlink" x="0px" y="0px" viewBox="0 0 1000 1000" enable-background="new 0 0 1000 1000" xml:space="preserve">
<metadata> Svg Vector Icons : http://www.onlinewebfonts.com/icon </metadata>
<g><g transform="translate(0.000000,512.000000) scale(0.100000,-0.100000)"><path d="M4693.7,4254.4v-765.6H5000h306.3v765.6V5020H5000h-306.3V4254.4z"/><path d="M2540.4,4359.6c-135.9-80.4-246.9-151.2-245-158.9c5.7-26.8,717.8-1257.5,742.7-1282.4c19.1-21.1,68.9,0,283.3,122.5l258.4,147.4l-49.8,90c-28.7,49.8-197.2,344.5-377.1,656.5c-178,312-333,566.6-344.5,566.6C2798.8,4501.3,2678.2,4438.1,2540.4,4359.6z"/><path d="M6847.1,3934.7c-178-312-348.4-606.8-377.1-656.5l-49.8-88l258.4-149.3c216.3-126.3,262.2-145.5,283.3-124.4c13.4,15.3,172.3,285.2,354.1,601s346.4,601,365.6,633.6l36.4,59.3l-256.5,145.5c-139.7,80.4-262.2,147.4-271.8,147.4C7180.1,4501.3,7027,4246.7,6847.1,3934.7z"/><path d="M4712.9,3171c-830.7-99.5-1546.6-474.7-2048-1075.7c-348.4-415.4-566.6-869-673.8-1404.9c-61.2-308.2-61.2-828.8,0-1138.9c250.7-1259.5,1205.9-2205,2473-2448.1c275.6-51.7,819.2-49.8,1100.6,7.6c1255.6,250.8,2193.5,1188.6,2444.3,2444.3c61.3,300.5,61.3,828.8,0,1129.3c-248.8,1248-1188.6,2193.5-2427,2440.4C5398.1,3163.4,4871.8,3190.2,4712.9,3171z M5516.8,2514.5c312-70.8,595.3-193.3,861.3-371.3c183.7-122.5,522.5-461.3,645-645c564.6-846,564.6-1910.2,0-2756.2c-122.5-183.7-461.3-522.5-645-645c-846-564.6-1910.2-564.6-2756.2,0c-183.8,122.5-522.5,461.3-645,645c-181.8,271.8-312,578-380.9,899.6c-49.8,227.8-49.8,729.3,0,957c68.9,321.6,199.1,627.8,380.9,899.6c122.5,183.8,461.3,522.5,645,645c331.1,222,712,363.7,1110.2,415.3C4883.2,2577.7,5357.9,2550.9,5516.8,2514.5z"/><path d="M4680.3,1618.7c-7.7-19.1-143.6-361.8-304.3-761.8l-290.9-727.3l302.4-5.7l302.4-3.8l-302.4-909.2c-166.5-499.6-296.7-909.2-290.9-909.2c7.7,0,491.9,478.5,1075.7,1062.3L6234.6,426.3h-400c-371.3,0-398.1,1.9-388.5,34.4c3.8,17.2,95.7,252.7,204.8,520.6c107.2,268,212.5,528.3,231.6,580l36.4,90h-612.5C4739.7,1651.3,4691.8,1649.3,4680.3,1618.7z"/><path d="M756.5,2571.9l-153.1-268l602.9-346.4c331.1-191.4,629.7-365.6,662.3-384.7l61.2-36.4l149.3,260.3c122.5,214.4,143.6,266.1,122.5,285.2c-13.4,13.4-283.3,172.3-599.1,354.1s-601,346.4-633.6,365.6l-59.3,36.4L756.5,2571.9z"/><path d="M8449.1,2464.7c-350.3-202.9-646.9-377.1-658.4-388.5c-13.4-13.4,24.9-95.7,130.1-279.5l149.3-258.4l97.6,55.5c51.7,30.6,346.4,201,654.6,377.1c308.2,178,558.9,329.2,560.8,338.8c0,15.3-225.9,419.2-275.6,491.9C9088.4,2828.4,9004.2,2786.3,8449.1,2464.7z"/><path d="M100,120v-306.3h765.6h765.6V120v306.3H865.6H100V120z"/><path d="M8368.7,120v-306.3h765.6H9900V120v306.3h-765.6h-765.6V120z"/><path d="M1273.3-1677.3c-359.8-206.7-654.6-382.8-656.5-392.4c0-7.6,65.1-132.1,145.5-271.8C902-2588.4,911.6-2598,949.8-2573.1c21.1,13.4,308.2,179.9,633.6,367.5c327.3,187.6,604.8,352.2,620.2,365.6c21.1,19.1,5.7,59.3-105.3,250.8c-70.8,124.4-139.7,239.3-151.2,256.5C1929.8-1304.1,1845.6-1346.2,1273.3-1677.3z"/><path d="M7922.8-1554.8c-80.4-139.7-147.4-262.2-147.4-269.9c1.9-9.6,256.5-162.7,568.5-342.6c312-178,608.7-348.4,656.5-377.1l90-51.7l147.4,254.6c80.4,139.7,145.5,262.2,145.5,271.8c-1.9,9.6-256.5,164.6-568.5,342.6c-312,179.9-606.8,348.4-656.5,377.1l-88,49.8L7922.8-1554.8z"/><path d="M2712.7-3223.9c-178-312-348.4-608.7-377.1-656.5l-51.7-90l254.6-147.4c139.7-80.4,262.2-145.5,271.8-145.5c9.6,1.9,164.6,256.5,342.6,568.5c179.9,312,348.4,608.7,377.1,656.5l49.8,88l-254.6,147.4c-139.7,80.4-262.2,147.4-269.9,147.4C3045.7-2657.3,2892.6-2911.9,2712.7-3223.9z"/><path d="M6671-2802.8l-252.7-147.4l55.5-97.6c30.6-51.7,201-346.4,377.1-654.6c178-308.2,329.2-558.9,338.8-560.8c9.6,0,132.1,65.1,271.8,147.4l254.6,145.5l-45.9,78.5c-24.9,44-195.2,336.9-377.1,650.8c-181.8,315.8-338.8,576.1-350.3,578C6933.2-2659.2,6810.7-2722.4,6671-2802.8z"/><path d="M4693.7-4014.4V-4780H5000h306.3v765.6v765.6H5000h-306.3V-4014.4z"/></g></g>
</svg>